<?xml version="1.0" standalone="no"?><!DOCTYPE svg PUBLIC "-//W3C//DTD SVG 1.1//EN" "http://www.w3.org/Graphics/SVG/1.1/DTD/svg11.dtd"><svg t="1544104922412" class="icon" style="" viewBox="0 0 1024 1024" version="1.1" xmlns="http://www.w3.org/2000/svg" p-id="2220" xmlns:xlink="http://www.w3.org/1999/xlink" width="16" height="16"><defs><style type="text/css"></style></defs><path d="M157.515279 0h708.969342A157.414887 157.414887 0 0 1 1023.9999 156.410965v711.17797A157.414887 157.414887 0 0 1 866.484621 1023.9999H157.515279A157.414887 157.414887 0 0 1 0 867.588935V156.410965A157.414887 157.414887 0 0 1 157.515279 0z" fill="#0078D1" p-id="2221"></path><path d="M242.848604 511.196813h110.933322c2.409412-37.145094 0-116.956851 0-173.47763h-54.211759c-15.159214 33.330193-29.314507 60.235288-57.323916 71.278424a63.849406 63.849406 0 0 1-41.461957 3.614117c12.247842 1.505882 54.312152-150.588221 74.892542-178.497237a77.60313 77.60313 0 0 1 57.5247-28.812546 319.447812 319.447812 0 0 1-24.596076 86.337246H514.007793v46.079996H402.672902c0 55.717642 2.108235 135.529398 0 173.47763h128.803124l-0.602353 46.581956-130.509791-0.702745c-1.204706 10.039215-2.309019 34.534899-3.513725 43.871368 0 0 68.367052 71.479209 104.70901 117.860381v80.313717c-38.751369-51.601564-119.466655-147.877633-119.466655-147.877632-48.690191 123.482341-116.555283 167.956062-116.555283 167.956062H190.745079s147.877633-162.032925 159.121553-261.019583h-154.603906z m312.922322-222.468998H813.176391v465.518386l-104.809402 0.50196-77.904306 63.949798-31.623526-64.451758h-43.068231z m209.919979 44.774897H603.557588v366.029768h9.33647l27.60784 57.524701 71.378817-57.524701h53.81019z" fill="#FFFFFF" p-id="2222"></path></svg>